<svg width="48" height="48" viewBox="0 0 48 48" fill="none" xmlns="http://www.w3.org/2000/svg">
<circle opacity="0.1" cx="24" cy="24" r="24" fill="white"/>
<path d="M31.875 33C29.8417 33 27.8208 32.5 25.8125 31.5C23.8042 30.5 22 29.2 20.4 27.6C18.8 26 17.5 24.1958 16.5 22.1875C15.5 20.1792 15 18.1583 15 16.125C15 15.8083 15.1083 15.5417 15.325 15.325C15.5417 15.1083 15.8083 15 16.125 15H19.625C19.8583 15 20.0625 15.0792 20.2375 15.2375C20.4125 15.3958 20.525 15.6083 20.575 15.875L21.25 19.025C21.2833 19.2583 21.2792 19.4708 21.2375 19.6625C21.1958 19.8542 21.1083 20.0167 20.975 20.15L18.475 22.675C19.4083 24.225 20.4542 25.575 21.6125 26.725C22.7708 27.875 24.0833 28.85 25.55 29.65L27.925 27.2C28.0917 27.0167 28.2833 26.8875 28.5 26.8125C28.7167 26.7375 28.9333 26.725 29.15 26.775L32.125 27.425C32.375 27.475 32.5833 27.6 32.75 27.8C32.9167 28 33 28.2333 33 28.5V31.875C33 32.1917 32.8917 32.4583 32.675 32.675C32.4583 32.8917 32.1917 33 31.875 33Z" fill="white"/>
</svg>
