<svg width="22" height="22" viewBox="0 0 22 22" fill="none" xmlns="http://www.w3.org/2000/svg">
<path d="M8.88805 12.1437H6.71005C6.35805 12.1437 6.24805 12.0117 6.24805 11.6817V9.01968C6.24805 8.66768 6.38005 8.55768 6.71005 8.55768H8.88805V6.62168C8.88805 5.74168 9.04205 4.90568 9.48205 4.13568C9.94405 3.34368 10.604 2.81568 11.44 2.50768C11.99 2.30968 12.54 2.22168 13.134 2.22168H15.29C15.598 2.22168 15.73 2.35368 15.73 2.66168V5.16968C15.73 5.47768 15.598 5.60968 15.29 5.60968C14.696 5.60968 14.102 5.60968 13.508 5.63168C12.914 5.63168 12.606 5.91768 12.606 6.53368C12.584 7.19368 12.606 7.83168 12.606 8.51368H15.158C15.51 8.51368 15.642 8.64568 15.642 8.99768V11.6597C15.642 12.0117 15.532 12.1217 15.158 12.1217H12.606V19.2937C12.606 19.6677 12.496 19.7997 12.1 19.7997H9.35005C9.02005 19.7997 8.88805 19.6677 8.88805 19.3377V12.1437Z" fill="white"/>
</svg>
