<svg width="48" height="48" viewBox="0 0 48 48" fill="none" xmlns="http://www.w3.org/2000/svg">
<circle opacity="0.1" cx="24" cy="24" r="24" fill="white"/>
<g clip-path="url(#clip0_64_930)">
<path d="M24.0016 19.6199C21.5408 19.6199 19.556 21.5738 19.556 23.996C19.556 26.4183 21.5408 28.3721 24.0016 28.3721C26.4623 28.3721 28.4471 26.4183 28.4471 23.996C28.4471 21.5738 26.4623 19.6199 24.0016 19.6199ZM24.0016 26.841C22.4114 26.841 21.1114 25.5652 21.1114 23.996C21.1114 22.4269 22.4075 21.151 24.0016 21.151C25.5956 21.151 26.8917 22.4269 26.8917 23.996C26.8917 25.5652 25.5917 26.841 24.0016 26.841ZM29.6658 19.4409C29.6658 20.0084 29.2016 20.4616 28.6289 20.4616C28.0524 20.4616 27.592 20.0046 27.592 19.4409C27.592 18.8773 28.0563 18.4202 28.6289 18.4202C29.2016 18.4202 29.6658 18.8773 29.6658 19.4409ZM32.6102 20.4769C32.5444 19.1096 32.2271 17.8985 31.2096 16.9006C30.1959 15.9028 28.9655 15.5905 27.5766 15.5219C26.145 15.4419 21.8542 15.4419 20.4227 15.5219C19.0376 15.5866 17.8072 15.8989 16.7897 16.8968C15.7721 17.8947 15.4587 19.1058 15.3891 20.4731C15.3078 21.8822 15.3078 26.106 15.3891 27.5152C15.4548 28.8824 15.7721 30.0936 16.7897 31.0914C17.8072 32.0893 19.0337 32.4016 20.4227 32.4701C21.8542 32.5501 26.145 32.5501 27.5766 32.4701C28.9655 32.4054 30.1959 32.0931 31.2096 31.0914C32.2233 30.0936 32.5405 28.8824 32.6102 27.5152C32.6914 26.106 32.6914 21.8861 32.6102 20.4769ZM30.7608 29.0272C30.459 29.7737 29.8748 30.3487 29.1126 30.6496C27.9712 31.0952 25.2629 30.9924 24.0016 30.9924C22.7402 30.9924 20.028 31.0914 18.8905 30.6496C18.1322 30.3526 17.548 29.7775 17.2423 29.0272C16.7897 27.9036 16.8941 25.2376 16.8941 23.996C16.8941 22.7544 16.7935 20.0846 17.2423 18.9649C17.5441 18.2184 18.1283 17.6433 18.8905 17.3424C20.0319 16.8968 22.7402 16.9996 24.0016 16.9996C25.2629 16.9996 27.9751 16.9006 29.1126 17.3424C29.8709 17.6395 30.4551 18.2146 30.7608 18.9649C31.2135 20.0884 31.109 22.7544 31.109 23.996C31.109 25.2376 31.2135 27.9074 30.7608 29.0272Z" fill="white"/>
</g>
<defs>
<clipPath id="clip0_64_930">
<rect width="17.3333" height="19.5" fill="white" transform="translate(15.332 14.25)"/>
</clipPath>
</defs>
</svg>
