<svg width="48" height="48" viewBox="0 0 48 48" fill="none" xmlns="http://www.w3.org/2000/svg">
<circle opacity="0.1" cx="24" cy="24" r="24" fill="white"/>
<g clip-path="url(#clip0_64_936)">
<path d="M19.2674 31.583V20.6192H15.5513V31.583H19.2674ZM17.4098 19.1213C18.7057 19.1213 19.5124 18.2794 19.5124 17.2274C19.4882 16.1515 18.7058 15.333 17.4344 15.333C16.1633 15.333 15.332 16.1516 15.332 17.2274C15.332 18.2795 16.1385 19.1213 17.3856 19.1213H17.4097H17.4098ZM21.3243 31.583H25.0405V25.4603C25.0405 25.1326 25.0646 24.8052 25.1628 24.571C25.4314 23.9163 26.0429 23.2382 27.0694 23.2382C28.4142 23.2382 28.9521 24.2436 28.9521 25.7175V31.5829H32.668V25.2964C32.668 21.9287 30.8347 20.3618 28.3897 20.3618C26.385 20.3618 25.5048 21.4606 25.0158 22.209H25.0406V20.6189H21.3244C21.3732 21.6477 21.3244 31.5828 21.3244 31.5828L21.3243 31.583Z" fill="white"/>
</g>
<defs>
<clipPath id="clip0_64_936">
<rect width="17.3333" height="16.25" fill="white" transform="translate(15.332 15.333)"/>
</clipPath>
</defs>
</svg>
