<svg width="48" height="48" viewBox="0 0 48 48" fill="none" xmlns="http://www.w3.org/2000/svg">
<circle opacity="0.1" cx="24" cy="24" r="24" fill="white"/>
<g clip-path="url(#clip0_64_942)">
<path d="M33.75 18.2638C33.0198 18.5719 32.2453 18.7742 31.4522 18.8639C32.2783 18.3922 32.9126 17.6453 33.2112 16.7553C32.4259 17.1993 31.5668 17.5121 30.6708 17.6802C29.941 16.9395 28.9014 16.4766 27.7506 16.4766C25.5412 16.4766 23.7499 18.1831 23.7499 20.2878C23.7499 20.5866 23.7853 20.8774 23.8534 21.1565C20.5285 20.9975 17.5807 19.4801 15.6075 17.1742C15.2632 17.7371 15.0659 18.3919 15.0659 19.0903C15.0659 20.4126 15.7722 21.5792 16.8456 22.2627C16.2103 22.2437 15.589 22.0803 15.0335 21.7859C15.0333 21.8019 15.0333 21.8178 15.0333 21.8339C15.0333 23.6805 16.4123 25.221 18.2424 25.5711C17.6533 25.7238 17.0353 25.7461 16.4358 25.6364C16.9448 27.1506 18.4223 28.2525 20.1729 28.2833C18.8037 29.3055 17.0786 29.9149 15.2044 29.9149C14.8814 29.9149 14.563 29.8968 14.25 29.8616C16.0205 30.943 18.1233 31.574 20.3826 31.574C27.7413 31.574 31.7653 25.7663 31.7653 20.7298C31.7653 20.5645 31.7615 20.4002 31.7537 20.2367C32.5369 19.6973 33.2129 19.0292 33.75 18.2638Z" fill="white"/>
</g>
<defs>
<clipPath id="clip0_64_942">
<rect width="19.5" height="15.1667" fill="white" transform="translate(14.25 16.417)"/>
</clipPath>
</defs>
</svg>
