<svg width="22" height="22" viewBox="0 0 22 22" fill="none" xmlns="http://www.w3.org/2000/svg">
<g clip-path="url(#clip0_61_864)">
<path d="M17.3951 4.07129C17.1006 4.07129 16.861 4.31093 16.861 4.60539C16.861 4.89986 17.1006 5.13949 17.3951 5.13949C17.6896 5.13949 17.9292 4.8999 17.9292 4.60539C17.9292 4.31088 17.6896 4.07129 17.3951 4.07129ZM11 6.26549C8.38913 6.26549 6.26501 8.38961 6.26501 11.0005C6.26501 13.6113 8.38913 15.7355 11 15.7355C13.6109 15.7355 15.735 13.6114 15.735 11.0005C15.735 8.38965 13.6109 6.26549 11 6.26549Z" fill="#ff"/>
<path d="M15.969 0H6.03096C2.70548 0 0 2.70548 0 6.03101V15.969C0 19.2946 2.70548 22 6.03096 22H15.969C19.2946 22 22 19.2945 22 15.969V6.03101C22 2.70548 19.2946 0 15.969 0ZM11 17.0342C7.67272 17.0342 4.96586 14.3273 4.96586 11C4.96586 7.67272 7.67276 4.9659 11 4.9659C14.3272 4.9659 17.0342 7.67276 17.0342 11C17.0342 14.3272 14.3272 17.0342 11 17.0342ZM17.3951 6.43827C16.3842 6.43827 15.5618 5.61584 15.5618 4.60496C15.5618 3.59408 16.3842 2.77161 17.3951 2.77161C18.406 2.77161 19.2284 3.59404 19.2284 4.60492C19.2284 5.6158 18.406 6.43827 17.3951 6.43827Z" fill="#fff"/>
</g>
<defs>
<clipPath id="clip0_61_864">
<rect width="22" height="22" fill="white"/>
</clipPath>
</defs>
</svg>
