<svg width="24" height="24" viewBox="0 0 24 24" fill="none" xmlns="http://www.w3.org/2000/svg">
<g clip-path="url(#clip0_61_882)">
<path d="M12 0C16.962 0 21 4.066 21 9.065C21 16.168 12.846 23.502 12.499 23.81C12.3618 23.9328 12.1843 24.0007 12.0002 24.0009C11.8161 24.0011 11.6384 23.9335 11.501 23.811C11.154 23.502 3 16.168 3 9.065C3 4.066 7.038 0 12 0ZM12 14C14.757 14 17 11.757 17 9C17 6.243 14.757 4 12 4C9.243 4 7 6.243 7 9C7 11.757 9.243 14 12 14Z" fill="#F5C33D"/>
</g>
<defs>
<clipPath id="clip0_61_882">
<rect width="24" height="24" fill="white" transform="matrix(-1 0 0 1 24 0)"/>
</clipPath>
</defs>
</svg>
