<svg width="24" height="24" viewBox="0 0 24 24" fill="none" xmlns="http://www.w3.org/2000/svg">
<path d="M3.5 20C3.1 20 2.75 19.85 2.45 19.55C2.15 19.25 2 18.9 2 18.5V5.5C2 5.1 2.15 4.75 2.45 4.45C2.75 4.15 3.1 4 3.5 4H20.5C20.9 4 21.25 4.15 21.55 4.45C21.85 4.75 22 5.1 22 5.5V18.5C22 18.9 21.85 19.25 21.55 19.55C21.25 19.85 20.9 20 20.5 20H3.5ZM12 12.3C12.0833 12.3 12.1542 12.2875 12.2125 12.2625C12.2708 12.2375 12.3333 12.2083 12.4 12.175L20.25 7.05C20.3333 7 20.3958 6.93333 20.4375 6.85C20.4792 6.76667 20.5 6.675 20.5 6.575C20.5 6.35833 20.4042 6.1875 20.2125 6.0625C20.0208 5.9375 19.825 5.94167 19.625 6.075L12 10.95L4.4 6.075C4.2 5.94167 4 5.93333 3.8 6.05C3.6 6.16667 3.5 6.33333 3.5 6.55C3.5 6.65 3.525 6.74583 3.575 6.8375C3.625 6.92917 3.68333 7 3.75 7.05L11.6 12.175C11.6667 12.2083 11.7292 12.2375 11.7875 12.2625C11.8458 12.2875 11.9167 12.3 12 12.3Z" fill="white"/>
</svg>
