<svg width="48" height="48" viewBox="0 0 48 48" fill="none" xmlns="http://www.w3.org/2000/svg">
<circle opacity="0.1" cx="24" cy="24" r="24" fill="white"/>
<path d="M15.5 32C15.1 32 14.75 31.85 14.45 31.55C14.15 31.25 14 30.9 14 30.5V17.5C14 17.1 14.15 16.75 14.45 16.45C14.75 16.15 15.1 16 15.5 16H32.5C32.9 16 33.25 16.15 33.55 16.45C33.85 16.75 34 17.1 34 17.5V30.5C34 30.9 33.85 31.25 33.55 31.55C33.25 31.85 32.9 32 32.5 32H15.5ZM24 24.3C24.0833 24.3 24.1542 24.2875 24.2125 24.2625C24.2708 24.2375 24.3333 24.2083 24.4 24.175L32.25 19.05C32.3333 19 32.3958 18.9333 32.4375 18.85C32.4792 18.7667 32.5 18.675 32.5 18.575C32.5 18.3583 32.4042 18.1875 32.2125 18.0625C32.0208 17.9375 31.825 17.9417 31.625 18.075L24 22.95L16.4 18.075C16.2 17.9417 16 17.9333 15.8 18.05C15.6 18.1667 15.5 18.3333 15.5 18.55C15.5 18.65 15.525 18.7458 15.575 18.8375C15.625 18.9292 15.6833 19 15.75 19.05L23.6 24.175C23.6667 24.2083 23.7292 24.2375 23.7875 24.2625C23.8458 24.2875 23.9167 24.3 24 24.3Z" fill="white"/>
</svg>
