<svg width="50" height="50" viewBox="0 0 50 50" fill="none" xmlns="http://www.w3.org/2000/svg">
<rect width="50" height="50" fill="#272B39"/>
<path d="M36.5993 24.2341L29.016 16.6508C28.8116 16.4534 28.538 16.3443 28.2539 16.3467C27.9699 16.3492 27.6982 16.4631 27.4973 16.664C27.2965 16.8648 27.1825 17.1366 27.1801 17.4206C27.1776 17.7046 27.2868 17.9783 27.4841 18.1826L33.2182 23.9167H14.1667C13.8794 23.9167 13.6038 24.0308 13.4007 24.234C13.1975 24.4372 13.0834 24.7127 13.0834 25C13.0834 25.2874 13.1975 25.5629 13.4007 25.7661C13.6038 25.9692 13.8794 26.0834 14.1667 26.0834H33.2182L27.4841 31.8175C27.3807 31.9174 27.2981 32.0369 27.2413 32.1691C27.1846 32.3013 27.1547 32.4434 27.1534 32.5873C27.1522 32.7311 27.1796 32.8738 27.2341 33.0069C27.2885 33.14 27.369 33.261 27.4707 33.3627C27.5724 33.4644 27.6934 33.5449 27.8265 33.5993C27.9596 33.6538 28.1023 33.6812 28.2461 33.68C28.39 33.6787 28.5321 33.6488 28.6643 33.5921C28.7965 33.5353 28.916 33.4528 29.016 33.3493L36.5993 25.766C36.8024 25.5628 36.9165 25.2873 36.9165 25C36.9165 24.7128 36.8024 24.4373 36.5993 24.2341Z" fill="#F5C33D"/>
</svg>
