<svg width="50" height="50" viewBox="0 0 50 50" fill="none" xmlns="http://www.w3.org/2000/svg">
<rect width="50" height="50" transform="matrix(-1 0 0 1 50 0)" fill="#272B39"/>
<path d="M13.4007 24.2341L20.984 16.6508C21.1884 16.4534 21.462 16.3443 21.7461 16.3467C22.0301 16.3492 22.3018 16.4631 22.5027 16.664C22.7035 16.8648 22.8175 17.1366 22.8199 17.4206C22.8224 17.7046 22.7132 17.9783 22.5159 18.1826L16.7818 23.9167H35.8333C36.1206 23.9167 36.3962 24.0308 36.5993 24.234C36.8025 24.4372 36.9166 24.7127 36.9166 25C36.9166 25.2874 36.8025 25.5629 36.5993 25.7661C36.3962 25.9692 36.1206 26.0834 35.8333 26.0834H16.7818L22.5159 31.8175C22.6193 31.9174 22.7019 32.0369 22.7587 32.1691C22.8154 32.3013 22.8453 32.4434 22.8466 32.5873C22.8478 32.7311 22.8204 32.8738 22.7659 33.0069C22.7115 33.14 22.631 33.261 22.5293 33.3627C22.4276 33.4644 22.3066 33.5449 22.1735 33.5993C22.0404 33.6538 21.8977 33.6812 21.7539 33.68C21.61 33.6787 21.4679 33.6488 21.3357 33.5921C21.2035 33.5353 21.084 33.4528 20.984 33.3493L13.4007 25.766C13.1976 25.5628 13.0835 25.2873 13.0835 25C13.0835 24.7128 13.1976 24.4373 13.4007 24.2341Z" fill="#F5C33D"/>
</svg>
