<svg width="22" height="23" viewBox="0 0 22 23" fill="none" xmlns="http://www.w3.org/2000/svg">
<path d="M20.8147 12.1483L14.398 18.5649C14.2252 18.7319 13.9936 18.8243 13.7533 18.8222C13.5129 18.8201 13.283 18.7237 13.113 18.5538C12.9431 18.3838 12.8467 18.1539 12.8446 17.9136C12.8425 17.6732 12.9349 17.4417 13.1019 17.2688L17.9538 12.4169H1.83329C1.59018 12.4169 1.35702 12.3203 1.18511 12.1484C1.0132 11.9765 0.916626 11.7433 0.916626 11.5002C0.916626 11.2571 1.0132 11.0239 1.18511 10.852C1.35702 10.6801 1.59018 10.5835 1.83329 10.5835H17.9538L13.1019 5.73161C13.0143 5.64705 12.9445 5.5459 12.8965 5.43407C12.8484 5.32223 12.8231 5.20195 12.8221 5.08023C12.821 4.95852 12.8442 4.83781 12.8903 4.72516C12.9364 4.6125 13.0044 4.51015 13.0905 4.42409C13.1766 4.33802 13.2789 4.26995 13.3916 4.22386C13.5042 4.17777 13.6249 4.15458 13.7467 4.15563C13.8684 4.15669 13.9887 4.18198 14.1005 4.23002C14.2123 4.27806 14.3135 4.3479 14.398 4.43545L20.8147 10.8521C20.9866 11.024 21.0831 11.2571 21.0831 11.5002C21.0831 11.7433 20.9866 11.9764 20.8147 12.1483Z" fill="white"/>
</svg>
