<svg width="25" height="25" viewBox="0 0 25 25" fill="none" xmlns="http://www.w3.org/2000/svg">
<g clip-path="url(#clip0_61_954)">
<path d="M24.2851 3.41737C23.9174 3.04896 23.3206 3.04832 22.9529 3.4158L11.6495 14.6893L7.57128 10.26C7.21888 9.87747 6.62308 9.85267 6.23993 10.205C5.85707 10.5574 5.83256 11.1535 6.18495 11.5364L10.9274 16.6868C11.0133 16.7802 11.1173 16.8552 11.2329 16.9074C11.3486 16.9596 11.4736 16.9879 11.6005 16.9905C11.6074 16.9908 11.614 16.9908 11.6206 16.9908C11.8699 16.9907 12.1091 16.8919 12.2858 16.716L24.2833 4.74993C24.652 4.3825 24.6526 3.78577 24.2851 3.41737Z" fill="#23A828"/>
<path d="M24.0578 11.5578C23.5374 11.5578 23.1156 11.9795 23.1156 12.5C23.1156 18.3537 18.3537 23.1156 12.5 23.1156C6.64668 23.1156 1.88442 18.3537 1.88442 12.5C1.88442 6.64668 6.64668 1.88442 12.5 1.88442C13.0204 1.88442 13.4422 1.46265 13.4422 0.942236C13.4422 0.421777 13.0204 0 12.5 0C5.60742 0 0 5.60742 0 12.5C0 19.3923 5.60742 25 12.5 25C19.3923 25 25 19.3923 25 12.5C25 11.9796 24.5782 11.5578 24.0578 11.5578Z" fill="#272B39"/>
</g>
<defs>
<clipPath id="clip0_61_954">
<rect width="25" height="25" fill="white"/>
</clipPath>
</defs>
</svg>
