<svg width="436" height="436" viewBox="0 0 436 436" fill="none" xmlns="http://www.w3.org/2000/svg">
<rect opacity="0.8" width="436" height="436" fill="black"/>
<g clip-path="url(#clip0_76_2187)">
<path d="M210.833 182.167C195 182.167 182.168 195.001 182.168 210.832C182.168 226.667 195 239.499 210.833 239.499C226.668 239.499 239.5 226.667 239.5 210.832C239.5 195.001 226.668 182.167 210.833 182.167ZM210.833 232.333C198.979 232.333 189.334 222.689 189.334 210.832C189.334 198.978 198.979 189.333 210.833 189.333C222.69 189.333 232.334 198.978 232.334 210.832C232.334 222.689 222.69 232.333 210.833 232.333Z" fill="white"/>
<path d="M210.833 203.667C206.879 203.667 203.667 206.879 203.667 210.833H196.5C196.5 202.927 202.927 196.5 210.833 196.5V203.667ZM230.356 225.288L225.288 230.356L248.759 253.833L253.833 248.77L230.356 225.288ZM182.167 253.833V239.5H175V261H196.5V253.833H182.167ZM253.833 182.167V196.5H261V175H239.5V182.167H253.833Z" fill="white"/>
</g>
<g clip-path="url(#clip1_76_2187)">
<path d="M419.444 15H366.556C366.351 14.9999 366.149 15.04 365.96 15.1181C365.771 15.1963 365.6 15.3108 365.455 15.4553C365.311 15.5998 365.196 15.7713 365.118 15.9601C365.04 16.1489 365 16.3513 365 16.5556V19.6667C365 19.871 365.04 20.0733 365.118 20.2621C365.196 20.4509 365.311 20.6225 365.455 20.7669C365.6 20.9114 365.771 21.026 365.96 21.1041C366.149 21.1823 366.351 21.2224 366.556 21.2223H414.778V69.4445C414.778 69.6489 414.818 69.8512 414.896 70.04C414.974 70.2288 415.089 70.4003 415.233 70.5448C415.378 70.6893 415.549 70.8039 415.738 70.882C415.927 70.9601 416.129 71.0003 416.333 71.0001H419.445C419.649 71.0003 419.851 70.9601 420.04 70.882C420.229 70.8039 420.4 70.6893 420.545 70.5448C420.689 70.4003 420.804 70.2288 420.882 70.04C420.96 69.8512 421 69.6489 421 69.4445V16.5556C421 16.3513 420.96 16.1489 420.882 15.9602C420.804 15.7714 420.689 15.5998 420.545 15.4554C420.4 15.3109 420.229 15.1963 420.04 15.1182C419.851 15.04 419.649 14.9999 419.444 15Z" fill="#D6D6D6"/>
</g>
<g clip-path="url(#clip2_76_2187)">
<path d="M419.444 421H366.556C366.351 421 366.149 420.96 365.96 420.882C365.771 420.804 365.6 420.689 365.455 420.545C365.311 420.4 365.196 420.229 365.118 420.04C365.04 419.851 365 419.649 365 419.444V416.333C365 416.129 365.04 415.927 365.118 415.738C365.196 415.549 365.311 415.378 365.455 415.233C365.6 415.089 365.771 414.974 365.96 414.896C366.149 414.818 366.351 414.778 366.556 414.778H414.778V366.555C414.778 366.351 414.818 366.149 414.896 365.96C414.974 365.771 415.089 365.6 415.233 365.455C415.378 365.311 415.549 365.196 415.738 365.118C415.927 365.04 416.129 365 416.333 365H419.445C419.649 365 419.851 365.04 420.04 365.118C420.229 365.196 420.4 365.311 420.545 365.455C420.689 365.6 420.804 365.771 420.882 365.96C420.96 366.149 421 366.351 421 366.555V419.444C421 419.649 420.96 419.851 420.882 420.04C420.804 420.229 420.689 420.4 420.545 420.545C420.4 420.689 420.229 420.804 420.04 420.882C419.851 420.96 419.649 421 419.444 421Z" fill="#D6D6D6"/>
</g>
<g clip-path="url(#clip3_76_2187)">
<path d="M16.5556 15H69.4444C69.6487 14.9999 69.8511 15.04 70.0399 15.1181C70.2287 15.1963 70.4002 15.3108 70.5447 15.4553C70.6892 15.5998 70.8037 15.7713 70.8819 15.9601C70.96 16.1489 71.0001 16.3513 71 16.5556V19.6667C71.0001 19.871 70.96 20.0733 70.8819 20.2621C70.8037 20.4509 70.6892 20.6225 70.5447 20.7669C70.4002 20.9114 70.2287 21.026 70.0399 21.1041C69.8511 21.1823 69.6487 21.2224 69.4444 21.2223H21.2221V69.4445C21.2223 69.6489 21.1821 69.8512 21.104 70.04C21.0259 70.2288 20.9113 70.4003 20.7668 70.5448C20.6223 70.6893 20.4508 70.8039 20.262 70.882C20.0732 70.9601 19.8708 71.0003 19.6665 71.0001H16.5555C16.3511 71.0003 16.1488 70.9601 15.96 70.882C15.7712 70.8039 15.5997 70.6893 15.4552 70.5448C15.3107 70.4003 15.1961 70.2288 15.118 70.04C15.0399 69.8512 14.9997 69.6489 14.9999 69.4445V16.5556C14.9998 16.3513 15.0399 16.1489 15.1181 15.9602C15.1962 15.7714 15.3108 15.5998 15.4553 15.4554C15.5998 15.3109 15.7714 15.1963 15.9601 15.1182C16.1489 15.04 16.3513 14.9999 16.5556 15Z" fill="#D6D6D6"/>
</g>
<g clip-path="url(#clip4_76_2187)">
<path d="M16.5556 421H69.4444C69.6487 421 69.8511 420.96 70.0399 420.882C70.2287 420.804 70.4002 420.689 70.5447 420.545C70.6892 420.4 70.8037 420.229 70.8819 420.04C70.96 419.851 71.0001 419.649 71 419.444V416.333C71.0001 416.129 70.96 415.927 70.8819 415.738C70.8037 415.549 70.6892 415.378 70.5447 415.233C70.4002 415.089 70.2287 414.974 70.0399 414.896C69.8511 414.818 69.6487 414.778 69.4444 414.778H21.2221V366.555C21.2223 366.351 21.1821 366.149 21.104 365.96C21.0259 365.771 20.9113 365.6 20.7668 365.455C20.6223 365.311 20.4508 365.196 20.262 365.118C20.0732 365.04 19.8708 365 19.6665 365H16.5555C16.3511 365 16.1488 365.04 15.96 365.118C15.7712 365.196 15.5997 365.311 15.4552 365.455C15.3107 365.6 15.1961 365.771 15.118 365.96C15.0399 366.149 14.9997 366.351 14.9999 366.555V419.444C14.9998 419.649 15.0399 419.851 15.1181 420.04C15.1962 420.229 15.3108 420.4 15.4553 420.545C15.5998 420.689 15.7714 420.804 15.9601 420.882C16.1489 420.96 16.3513 421 16.5556 421Z" fill="#D6D6D6"/>
</g>
<defs>
<clipPath id="clip0_76_2187">
<rect width="86" height="86" fill="white" transform="translate(175 175)"/>
</clipPath>
<clipPath id="clip1_76_2187">
<rect width="56" height="56" fill="white" transform="translate(365 15)"/>
</clipPath>
<clipPath id="clip2_76_2187">
<rect width="56" height="56" fill="white" transform="matrix(1 0 0 -1 365 421)"/>
</clipPath>
<clipPath id="clip3_76_2187">
<rect width="56" height="56" fill="white" transform="matrix(-1 0 0 1 71 15)"/>
</clipPath>
<clipPath id="clip4_76_2187">
<rect width="56" height="56" fill="white" transform="matrix(-1 0 0 -1 71 421)"/>
</clipPath>
</defs>
</svg>
