<svg width="22" height="22" viewBox="0 0 22 22" fill="none" xmlns="http://www.w3.org/2000/svg">
<path d="M1.79913 10.8843L6.22663 12.3878L16.7392 5.9611C16.8918 5.86829 17.0479 6.07522 16.9166 6.19622L8.95807 13.5215L8.66245 17.6225C8.65762 17.6912 8.67378 17.7597 8.70881 17.819C8.74383 17.8783 8.79605 17.9256 8.85854 17.9545C8.92103 17.9834 8.99084 17.9927 9.05871 17.981C9.12659 17.9694 9.18931 17.9374 9.23857 17.8892L11.6888 15.4795L16.1686 18.8703C16.6512 19.236 17.3504 18.9782 17.4803 18.387L20.5995 4.22447C20.7776 3.41666 19.9856 2.73466 19.2135 3.03029L1.77713 9.70729C1.22988 9.91698 1.24501 10.6959 1.79913 10.8843Z" fill="white"/>
</svg>
