<svg width="51" height="51" viewBox="0 0 51 51" fill="none" xmlns="http://www.w3.org/2000/svg">
<path d="M17.718 25.4995H9.93604V19.2739C9.93604 15.8401 12.7278 13.0483 16.1616 13.0483H16.9398C17.2466 13.0491 17.5505 12.9892 17.8341 12.8721C18.1177 12.7551 18.3753 12.5831 18.5923 12.3662C18.8092 12.1492 18.9811 11.8916 19.0982 11.608C19.2153 11.3244 19.2752 11.0205 19.2744 10.7137V6.04451C19.2752 5.73771 19.2153 5.43379 19.0982 5.1502C18.9811 4.86662 18.8092 4.60896 18.5923 4.39202C18.3753 4.17508 18.1177 4.00314 17.8341 3.88608C17.5505 3.76901 17.2466 3.70913 16.9398 3.70986H16.1616C7.56254 3.70986 0.597656 10.6747 0.597656 19.2738V42.6199C0.597656 45.1977 2.68906 47.2891 5.26685 47.2891H17.718C20.2958 47.2891 22.3872 45.1977 22.3872 42.6199V30.1687C22.3872 27.5909 20.2958 25.4995 17.718 25.4995ZM45.7332 25.4995H37.9512V19.2739C37.9512 15.8401 40.7429 13.0483 44.1768 13.0483H44.9549C45.2617 13.0491 45.5656 12.9892 45.8492 12.8721C46.1328 12.7551 46.3905 12.5831 46.6074 12.3662C46.8243 12.1492 46.9963 11.8916 47.1133 11.608C47.2304 11.3244 47.2903 11.0205 47.2896 10.7137V6.04451C47.2903 5.73771 47.2304 5.43379 47.1133 5.1502C46.9963 4.86662 46.8243 4.60896 46.6074 4.39202C46.3905 4.17508 46.1328 4.00314 45.8492 3.88608C45.5656 3.76901 45.2617 3.70913 44.9549 3.70986H44.1768C35.5777 3.70986 28.6128 10.6747 28.6128 19.2738V42.6199C28.6128 45.1977 30.7042 47.2891 33.282 47.2891H45.7332C48.3109 47.2891 50.4023 45.1977 50.4023 42.6199V30.1687C50.4023 27.5909 48.3109 25.4995 45.7332 25.4995Z" fill="#F5C33D"/>
</svg>
